<?xml version="1.0" standalone="no"?>
<!DOCTYPE svg PUBLIC "-//W3C//DTD SVG 20010904//EN"
 "http://www.w3.org/TR/2001/REC-SVG-20010904/DTD/svg10.dtd">
<svg version="1.0" xmlns="http://www.w3.org/2000/svg"
 width="1024.000000pt" height="1024.000000pt" viewBox="0 0 1024.000000 1024.000000"
 preserveAspectRatio="xMidYMid meet">

<g transform="translate(0.000000,1024.000000) scale(0.100000,-0.100000)"
fill="#000000" stroke="none">
<path d="M2398 9308 c-355 -27 -824 -269 -1072 -553 -175 -201 -256 -327 -363
-565 -72 -160 -128 -398 -142 -602 -12 -191 -4 -4953 9 -5048 24 -171 128
-509 153 -493 6 3 7 1 3 -5 -9 -15 28 -95 39 -85 4 5 5 3 2 -4 -18 -30 248
-423 275 -406 6 3 8 1 5 -4 -10 -16 138 -168 153 -158 8 5 11 4 6 -3 -12 -20
232 -200 254 -187 6 3 9 1 8 -5 -4 -17 189 -113 322 -161 63 -22 162 -53 220
-67 l105 -26 2655 -3 c2681 -3 2788 -2 2937 33 206 48 485 172 653 292 111 79
302 265 381 372 179 243 263 411 333 662 77 275 71 26 70 2833 l-1 2510 -23
125 c-25 141 -65 282 -116 414 -49 124 -113 248 -124 241 -5 -3 -7 0 -5 7 7
17 -87 154 -103 151 -6 -2 -9 3 -6 10 9 26 -220 282 -244 272 -7 -2 -11 -1 -8
4 8 13 -63 73 -76 65 -7 -4 -8 -2 -4 4 9 15 -207 158 -329 218 -115 56 -296
117 -428 146 l-102 21 -2675 1 c-1471 1 -2714 -2 -2762 -6z m5327 -1029 c232
-39 437 -172 558 -362 40 -62 100 -208 118 -287 10 -43 13 -535 16 -2330 2
-1303 0 -2363 -6 -2480 -8 -193 -11 -210 -40 -291 -99 -269 -279 -442 -548
-526 l-88 -28 -2610 1 c-2827 0 -2654 -3 -2807 56 -252 96 -430 315 -489 603
-18 86 -19 189 -19 2503 0 2684 -5 2480 69 2651 106 246 275 393 552 479 49
15 196 17 1724 22 2158 7 3492 3 3570 -11z"/>
<path d="M4595 7908 c-53 -27 -102 -74 -128 -123 -29 -53 -30 -173 -3 -225 25
-49 84 -108 131 -133 57 -31 173 -30 232 1 121 63 178 192 142 320 -17 61
-105 152 -165 170 -65 19 -162 15 -209 -10z"/>
<path d="M2505 7871 c-70 -32 -108 -79 -124 -151 -21 -94 23 -187 111 -235
146 -80 328 24 328 187 0 50 -36 133 -71 165 -59 54 -169 69 -244 34z"/>
<path d="M5260 7867 c-71 -34 -102 -72 -119 -147 -21 -94 33 -200 123 -241 39
-18 93 -19 1131 -19 1040 0 1092 1 1130 19 102 47 154 175 111 274 -17 39 -81
102 -119 116 -42 16 -2223 14 -2257 -2z"/>
<path d="M2650 7034 c-130 -35 -268 -147 -333 -271 -72 -138 -67 14 -67 -2034
0 -2033 -4 -1903 63 -2038 41 -84 142 -192 221 -236 124 -69 -64 -65 2580 -65
2653 0 2440 -6 2579 67 115 61 200 168 255 323 l27 75 3 1830 c2 1320 0 1851
-8 1905 -8 50 -25 102 -52 157 -69 142 -219 261 -366 292 -38 8 -741 11 -2450
10 -2075 0 -2404 -2 -2452 -15z m3996 -374 c176 -45 264 -105 525 -361 115
-113 190 -250 220 -403 5 -28 12 -61 14 -73 5 -21 10 -22 153 -25 143 -3 150
-4 190 -31 143 -94 91 -330 -80 -367 -27 -5 -96 -10 -153 -10 l-104 0 -4 -967
-3 -968 -23 -80 c-49 -172 -163 -362 -284 -471 -114 -103 -272 -188 -412 -224
-78 -20 -106 -20 -1570 -21 -1448 0 -1492 0 -1565 19 -316 83 -590 359 -682
688 l-23 80 -87 10 c-65 8 -97 17 -126 37 -55 36 -87 104 -86 182 1 69 19 111
66 150 42 36 66 44 149 51 l69 7 0 453 0 454 -52 0 c-147 0 -231 79 -232 220
-2 127 64 196 201 211 43 4 79 8 80 8 0 1 3 148 5 329 2 180 8 335 12 345 7
15 1 17 -63 17 -109 0 -171 33 -212 112 -60 117 -12 264 103 314 38 17 66 19
251 16 l209 -2 91 88 c107 103 159 140 245 176 135 57 58 54 1638 55 1429 1
1463 1 1540 -19z"/>
<path d="M5740 6040 c-120 -9 -145 -16 -230 -61 -77 -41 -176 -146 -218 -231
-51 -105 -64 -167 -69 -343 -6 -189 8 -272 63 -383 67 -137 142 -199 654 -543
140 -93 170 -135 170 -234 0 -65 -12 -101 -48 -139 -50 -53 -68 -56 -359 -56
-248 0 -271 -2 -313 -21 -90 -41 -133 -107 -133 -204 0 -75 18 -118 72 -172
79 -79 103 -83 482 -83 327 0 331 0 406 25 189 64 317 208 375 424 16 60 21
109 22 236 1 142 -2 169 -22 235 -34 109 -79 187 -147 255 -54 55 -234 186
-560 408 -99 68 -124 90 -142 127 -40 77 -22 172 43 231 49 45 80 49 343 49
237 0 248 1 297 24 152 71 178 262 52 383 -67 65 -95 71 -378 76 -140 3 -302
1 -360 -3z"/>
<path d="M4584 6006 c-56 -26 -104 -78 -124 -134 -11 -29 -14 -203 -17 -857
-1 -451 -5 -830 -8 -842 -8 -33 -65 -94 -102 -109 -24 -11 -93 -14 -268 -14
-234 0 -237 0 -291 -26 -190 -90 -164 -356 41 -433 52 -20 77 -21 348 -21 316
0 349 4 456 56 35 17 85 56 132 103 84 84 124 155 162 288 21 78 21 83 22 943
l0 865 -23 50 c-28 60 -53 89 -111 126 -59 38 -142 40 -217 5z"/>
</g>
</svg>
